<?xml version="1.0" encoding="UTF-8"?>
<svg width="16" height="16" clip-rule="evenodd" fill-rule="evenodd" image-rendering="optimizeQuality" shape-rendering="geometricPrecision" text-rendering="geometricPrecision" version="1.1" viewBox="0 0 16 16" xmlns="http://www.w3.org/2000/svg">
 <path d="m11.164 0.83587v2.34e-5c1.1145 1.1145 1.1145 2.9382 4.8e-5 4.0528l-2.3843 2.3843c-1.4069 1.4068-3.7986 0.99406-4.5647-0.76055 0.84112-0.73104 1.2513-0.49458 2.0527-0.15558 0.47175 0.1995 1.0252 0.092696 1.4081-0.29032l2.3291-2.329c0.50367-0.50374 0.50372-1.328 0-1.8318-0.50365-0.50363-1.3284-0.50325-1.8317 0l-1.6706 1.6706c-0.55273-0.26571-1.1746-0.34446-1.7684-0.23602a2.8471 2.8471 0 0 1 0.43985-0.56735l1.9371-1.9371c1.1145-1.1145 2.9382-1.1146 4.0528-2.34e-5zm-10.328 10.328 2.326e-5 2.4e-5c1.1145 1.1145 2.9382 1.1145 4.0527 0l2.0082-2.0082a2.8476 2.8476 0 0 0 0.45293-0.58962c-0.65334 0.16291-1.3538 0.094102-1.9672-0.20637l-1.6451 1.6451c-0.50325 0.50323-1.3279 0.50372-1.8316 0-0.50372-0.5037-0.50374-1.3279 0-1.8316l2.3291-2.3291c0.47726-0.47726 1.4297-0.61957 2.1496 0.039562 0.69677-0.073432 0.96738-0.20653 1.4002-0.62093-0.92339-1.6283-3.2252-1.8753-4.5646-0.53585l-2.3843 2.3843c-1.1145 1.1145-1.1145 2.9382 0 4.0528z" fill="#5b51a4"/>
 <ellipse cx="12.027" cy="12.027" rx="3.5" ry="3.5" fill="#cfcfd8" stroke="#2b2a33" stroke-linecap="round" stroke-linejoin="round"/>
 <path d="m10.481 12.117 1.512 1.3751 2.497-3.0163" fill="none" stroke="#2b2a33" stroke-linecap="round" stroke-linejoin="round" stroke-width="1px"/>
</svg>
