<?xml version="1.0" encoding="UTF-8"?>
<svg width="48" height="48" clip-rule="evenodd" fill-rule="evenodd" image-rendering="optimizeQuality" shape-rendering="geometricPrecision" text-rendering="geometricPrecision" version="1.1" viewBox="0 0 48 48" xmlns="http://www.w3.org/2000/svg" xmlns:xlink="http://www.w3.org/1999/xlink">
 <defs>
  <linearGradient id="linearGradient1488" x1="2.0625" x2="5.9062" y1="1046.3" y2="1050.4" gradientTransform="matrix(2.8791 0 0 2.8791 25.483 -2981.4)" gradientUnits="userSpaceOnUse">
   <stop stop-color="#47cc3c" offset="0"/>
   <stop stop-color="#1f9316" offset="1"/>
  </linearGradient>
  <linearGradient id="linearGradient1496" x1="1.0625" x2="6.9062" y1="1045.8" y2="1051.4" gradientTransform="matrix(2.8791 0 0 2.8791 25.483 -2981.4)" gradientUnits="userSpaceOnUse">
   <stop stop-color="#14aa08" offset="0"/>
   <stop stop-color="#0e6508" offset="1"/>
  </linearGradient>
 </defs>
 <g>
  <path d="m20.782 14.177 7.6573-7.6574c0.93-0.93008 2.1557-1.3954 3.3809-1.3954 1.2251 0 2.4508 0.46529 3.3809 1.3954l0.0056 0.0059c0.92631 0.92942 1.3898 2.1527 1.3898 3.375 0 1.2249-0.4652 2.4506-1.3951 3.3807l-7.8711 7.8712c-0.56722 0.56722-1.2811 0.97551-2.0489 1.203-0.76878 0.22756-1.5957 0.27241-2.3865 0.11234-1.0493-0.21239-1.7043-0.75525-2.3557-1.2952-1.349-1.4019-3.5695-1.5252-5.0894-0.0054l-0.0061 0.0061c0.36245 1.0968 1.0816 2.1663 1.9805 3.0763 0.95452 0.96608 2.1021 1.7442 3.235 2.1796 1.6227 0.62363 3.3966 0.75754 5.0866 0.40206 1.631-0.34326 3.1842-1.1465 4.4467-2.409l8.0348-8.0347c1.7339-1.7339 2.6011-4.0205 2.6011-6.3072 0-2.2853-0.86604-4.5702-2.5975-6.3037l-0.0036-0.00344c-1.734-1.7339-4.0205-2.601-6.3072-2.601-2.2867 0-4.5732 0.8671-6.3071 2.6009l-8.0348 8.0349c-0.45954 0.45954-0.85669 0.95443-1.1908 1.4745a8.8645 8.8645 0 0 0-0.44036 0.76599 10.191 10.191 0 0 1 2.1546-0.23002c0.90228 0 1.8045 0.11964 2.6805 0.3586z" fill="#96A1B6"/>
  <path d="m17.588 24.412 3.1087-3.1088c0.60182 0.49489 1.2332 0.96928 2.1978 1.1646 0.79084 0.16007 1.6178 0.11521 2.3865-0.11234 0.76788-0.22748 1.4817-0.63577 2.0489-1.203l7.8711-7.8712c0.92992-0.93008 1.3951-2.1558 1.3951-3.3807 0-1.1632-0.41969-2.3273-1.2587-3.2381l2.8894-2.8892 0.0036 0.00344c1.7315 1.7335 2.5975 4.0185 2.5975 6.3037 0 2.2867-0.86718 4.5733-2.6011 6.3072l-8.0348 8.0347c-1.2625 1.2625-2.8157 2.0657-4.4467 2.409-1.69 0.35548-3.4639 0.22157-5.0866-0.40206-1.0688-0.41075-2.1505-1.1265-3.0709-2.0173z" fill="#6C7C98"/>
  <path d="m3.3712 38.628h8.2e-5c3.7002 3.7003 9.7551 3.7003 13.455 0l7.9158-7.9158a9.4281 9.4281 0 0 0 2.3154-3.7896c-2.4503 0.39526-4.9327 0.41666-6.235 0.03904l-7.8183 7.8182c-1.6721 1.6722-4.4087 1.6724-6.0812 0-1.6723-1.6723-1.6722-4.4087 8.21e-5 -6.0811l7.7327-7.7326c1.6723-1.6724 4.4087-1.6724 6.081-8.1e-5 0.16335 0.16327 0.55262 0.40058 1.0133 0.63438 1.8276 0.92704 3.5671 0.6206 5.2276-0.79035a9.4273 9.4273 0 0 0-2.2357-3.5532c-3.7002-3.7002-9.7552-3.7002-13.455 0l-7.9158 7.9158c-3.7002 3.7002-3.7002 9.7552 0 13.455z" fill="#BBD4EC"/>
  <path d="m6.8923 35.108-3.1332 3.1332 1.641e-4 1.64e-4c1.7338 1.7339 4.0204 2.601 6.3072 2.601 2.2867 0 4.5732-0.8671 6.3072-2.601l8.0347-8.0347c0.47546-0.47545 0.88326-0.98723 1.2229-1.5237a8.7298 8.7298 0 0 0 0.40862-0.71851l-0.05617 0.01214a10.195 10.195 0 0 1-5.2084-0.26913l-7.2639 7.2638c-0.93008 0.93008-2.1558 1.3954-3.381 1.3954-1.1632 0-2.3274-0.41977-3.2381-1.2586zm17.516-17.516-2.8791 2.8791c0.46512 0.37664 0.95468 0.72269 1.5944 0.8521 0.60108 0.12161 1.2346 0.08618 1.8278-0.08939 0.50842-0.15064 0.9856-0.40608 1.3845-0.75558a8.7985 8.7985 0 0 0-0.72302-1.3927c-0.33482-0.524-0.73639-1.0253-1.2045-1.4934z" fill="#84A5C6"/>
  <path d="m14.476 14.486a9.9934 9.9934 0 0 1 0.92696-1.8352 10.044 10.044 0 0 1 1.3464-1.6714l8.0347-8.0347c1.9628-1.9628 4.5499-2.9444 7.1362-2.9444 5.588 0 10.081 4.4923 10.081 10.081 0 2.5864-0.98166 5.1733-2.9444 7.1362l-8.0348 8.0347a9.9966 9.9966 0 0 1-3.5072 2.2748 10.01 10.01 0 0 1-0.89367 1.7791 10.035 10.035 0 0 1-1.3829 1.7299l-8.0347 8.0347c-3.9065 3.9065-10.366 3.9067-14.272 0-3.9066-3.9064-3.9065-10.366 0-14.272l8.0347-8.0347a10.003 10.003 0 0 1 3.5105-2.2772zm6.2998 13.221-7.2639 7.2638c-1.8512 1.8512-4.9105 1.8512-6.7617 0-1.859-1.8591-1.8589-4.9025-1.639e-4 -6.7618l7.871-7.8708c0.72597-0.72589 1.646-1.1955 2.6604-1.3548 2.0607-0.32366 3.0293 0.4789 4.0045 1.287 0.54138 0.44888 1.086 0.90023 1.8381 1.0524 0.60108 0.12161 1.2346 0.08618 1.8278-0.08939 0.50842-0.15064 0.9856-0.40608 1.3845-0.75558-1.3649-3.3183-4.6114-5.4872-8.2347-5.4872-2.2868 0-4.5734 0.8671-6.3072 2.6011l-8.0347 8.0347c-3.4513 3.4513-3.4513 9.1634 0 12.614 3.4511 3.4513 9.1632 3.4512 12.614 0l8.0347-8.0347c0.47546-0.47545 0.88326-0.98723 1.2229-1.5237a8.7298 8.7298 0 0 0 0.40862-0.71851l-0.05617 0.01214a10.195 10.195 0 0 1-5.2084-0.26913zm6.4512-8.109 7.1453-7.1454c0.70129-0.70145 1.052-1.6266 1.052-2.552a3.5924 3.5924 0 0 0-3.604-3.604c-0.9254 0-1.8508 0.35081-2.552 1.052l-7.2522 7.2524c2.3014 0.96181 4.1526 2.7464 5.2108 4.997zm-6.4448-5.421 7.6573-7.6574c0.93-0.93008 2.1557-1.3954 3.3809-1.3954 2.6469 0 4.7763 2.1295 4.7763 4.7763 0 1.2249-0.4652 2.4506-1.3951 3.3807l-7.8711 7.8712c-0.56722 0.56722-1.2811 0.97551-2.0489 1.203-0.76878 0.22756-1.5957 0.27242-2.3865 0.11234-1.0493-0.21239-1.7043-0.75525-2.3557-1.2952-0.77304-0.64069-1.5409-1.2768-3.0794-1.0352-0.76902 0.12063-1.4668 0.48669-2.0161 1.036 0.36245 1.0968 1.0816 2.1663 1.9805 3.0763 0.95452 0.96608 2.1021 1.7442 3.235 2.1796 1.6227 0.62363 3.3966 0.75754 5.0866 0.40206 1.631-0.34326 3.1842-1.1465 4.4467-2.409l8.0348-8.0347c1.7339-1.7339 2.6011-4.0205 2.6011-6.3072a8.8818 8.8818 0 0 0-8.9082-8.9082c-2.2867 0-4.5732 0.8671-6.3071 2.6009l-8.0348 8.0349c-0.45954 0.45955-0.85669 0.95443-1.1908 1.4745a8.8645 8.8645 0 0 0-0.44036 0.76599 10.191 10.191 0 0 1 2.1546-0.23002c0.90228 0 1.8045 0.11964 2.6805 0.3586zm-6.2461 7.904-6.9571 6.957c-1.4039 1.4041-1.404 3.6997 1.641e-4 5.1039 1.3959 1.3959 3.7079 1.3959 5.1038 0l6.9061-6.9059c-1.0677-0.51424-2.1117-1.2697-2.9981-2.1668-0.87292-0.8835-1.5998-1.9106-2.0548-2.9882z" fill="#353E4D" fill-rule="nonzero"/>
 </g>
 <circle cx="37" cy="37" r="10" fill="url(#linearGradient1488)" stroke="url(#linearGradient1496)" stroke-linecap="round" stroke-linejoin="round" stroke-width="2"/>
 <path d="m32.5 37.558 3.4861 3.9423 6.5139-9.0001" fill="none" stroke="#fff" stroke-linecap="round" stroke-linejoin="round" stroke-width="3"/>
</svg>
